<?xml version="1.0" standalone="no"?>
<!DOCTYPE svg PUBLIC "-//W3C//DTD SVG 20010904//EN"
 "http://www.w3.org/TR/2001/REC-SVG-20010904/DTD/svg10.dtd">
<svg version="1.0" xmlns="http://www.w3.org/2000/svg"
 width="617.000000pt" height="297.000000pt" viewBox="0 0 617.000000 297.000000"
 preserveAspectRatio="xMidYMid meet">

<g transform="translate(0.000000,297.000000) scale(0.100000,-0.100000)"
fill="#ffffff" stroke="none">
<path d="M2703 2953 c-32 -4 -33 -6 -33 -51 0 -26 3 -104 7 -174 l6 -128 96 0
c121 0 141 5 141 36 0 24 -2 24 -90 24 l-90 0 0 44 0 45 81 7 c76 6 80 8 75
28 -3 11 -6 24 -6 27 0 3 -34 4 -75 1 l-75 -5 0 47 0 46 85 0 85 0 0 30 0 30
-87 -2 c-49 0 -103 -3 -120 -5z"/>
<path d="M3110 2785 l0 -175 28 0 29 0 6 128 c4 70 7 148 7 175 l0 47 -35 0
-35 0 0 -175z"/>
<path d="M3258 2788 c-3 -95 -4 -174 -2 -176 1 -2 14 -4 30 -5 l29 -2 5 114 5
115 80 -116 c73 -107 108 -139 127 -120 8 8 28 332 21 345 -2 4 -17 7 -34 7
l-29 0 -1 -67 c0 -38 -4 -87 -7 -111 l-7 -43 -80 115 c-68 98 -84 116 -106
116 l-27 0 -4 -172z"/>
<path d="M3600 2938 c0 -6 25 -89 56 -184 l57 -174 31 0 c30 0 33 4 113 164
45 90 79 167 76 170 -4 3 -18 6 -32 6 -24 0 -33 -12 -86 -120 -33 -66 -62
-120 -65 -120 -3 0 -24 57 -46 127 -38 124 -40 127 -72 134 -19 4 -32 2 -32
-3z"/>
<path d="M2202 2928 c-15 -15 -16 -55 -1 -64 7 -4 9 -22 6 -46 -5 -35 -3 -39
16 -36 27 4 54 99 38 135 -11 25 -40 30 -59 11z"/>
<path d="M2386 2933 l-59 -4 7 -102 c15 -239 18 -257 37 -257 38 0 44 9 41 60
-4 48 -3 50 21 50 14 0 32 3 40 6 9 3 27 -13 51 -45 29 -42 41 -51 66 -51 16
0 30 3 30 8 0 4 -16 29 -35 56 l-35 50 27 29 c23 24 28 37 28 82 0 39 -5 59
-20 75 -25 29 -76 51 -112 48 -15 -1 -55 -3 -87 -5z m136 -70 c11 -10 18 -30
18 -55 0 -35 -4 -40 -35 -54 -19 -7 -50 -14 -70 -14 l-35 0 0 63 c0 35 3 67 7
70 13 14 96 7 115 -10z"/>
<path d="M3961 2783 c-7 -70 -13 -150 -14 -178 -2 -48 -1 -50 26 -53 15 -2 27
-2 28 0 3 17 36 344 34 345 -1 2 -15 6 -32 9 l-30 6 -12 -129z"/>
<path d="M2074 2885 c-3 -8 -1 -62 6 -120 9 -82 9 -112 0 -135 -22 -54 -106
-65 -132 -17 -7 12 -19 74 -28 137 l-15 115 -30 -3 c-16 -2 -31 -5 -32 -6 -8
-8 31 -237 46 -266 47 -96 195 -88 248 13 13 26 14 50 9 135 -10 147 -14 162
-43 162 -13 0 -26 -7 -29 -15z"/>
<path d="M4077 2871 c-7 -33 -7 -32 48 -38 25 -3 47 -9 50 -13 2 -4 -3 -69
-12 -145 -16 -145 -15 -154 28 -155 18 0 21 12 40 183 l13 108 55 -3 c52 -3
56 -1 59 20 4 27 6 27 -150 50 l-126 19 -5 -26z"/>
<path d="M4400 2833 c-1 -5 -11 -82 -24 -171 -16 -114 -19 -165 -12 -168 6 -2
58 -13 116 -24 107 -20 124 -18 117 19 -2 15 -19 21 -117 40 l-55 11 3 41 c3
22 10 43 16 45 7 3 42 -2 78 -9 65 -14 67 -14 72 7 3 12 6 24 6 28 0 4 -26 12
-57 18 -92 18 -93 19 -93 50 0 58 3 59 95 40 47 -10 87 -15 90 -12 6 6 7 52 1
52 -2 0 -48 9 -101 20 -105 22 -135 24 -135 13z"/>
<path d="M1565 2807 c-43 -20 -93 -80 -101 -122 -10 -53 1 -124 23 -154 11
-14 35 -37 54 -49 49 -34 141 -28 194 12 44 34 74 95 75 151 0 49 -35 122 -72
149 -35 25 -130 32 -173 13z m126 -57 c43 -24 63 -117 37 -175 -24 -54 -113
-73 -161 -34 -61 47 -58 161 6 199 35 22 87 26 118 10z"/>
<path d="M1403 2772 c-30 -5 -36 -15 -68 -112 l-28 -84 -61 67 c-60 66 -84 78
-115 58 -11 -7 4 -29 69 -101 75 -82 85 -97 95 -148 9 -44 16 -58 31 -60 38
-5 44 9 32 74 -11 59 -9 65 30 184 23 68 41 124 39 125 -1 0 -12 -1 -24 -3z"/>
<path d="M4710 2773 c0 -8 -48 -289 -55 -319 -4 -19 3 -23 83 -40 104 -22 144
-21 188 6 63 39 92 147 60 223 -24 59 -75 93 -174 116 -100 23 -102 24 -102
14z m160 -92 c71 -33 88 -126 35 -190 -30 -35 -59 -41 -125 -28 -58 11 -57 4
-33 145 l17 102 36 -6 c19 -3 51 -13 70 -23z"/>
<path d="M917 1983 c-3 -5 -12 -48 -21 -98 -32 -187 -35 -195 -65 -195 -42 0
-127 -48 -167 -93 -74 -87 -126 -237 -110 -322 10 -52 54 -95 99 -95 34 0 79
26 105 62 13 18 33 25 31 11 -8 -52 29 -89 77 -77 15 4 47 27 71 51 43 43 44
43 53 19 18 -48 76 -69 133 -47 14 6 41 26 61 46 l36 36 0 -40 c0 -32 5 -44
25 -57 33 -21 66 -12 114 31 l38 34 21 -28 c21 -29 86 -66 100 -57 5 3 7 19 4
35 -2 16 6 60 18 98 32 96 121 266 134 252 2 -2 -10 -49 -26 -104 -16 -55 -30
-128 -31 -164 -2 -57 0 -65 23 -82 14 -10 38 -21 54 -25 27 -6 28 -5 22 22
-11 55 93 298 148 344 22 18 21 0 -8 -112 -13 -51 -27 -119 -31 -150 -7 -52
-5 -59 18 -82 30 -30 47 -32 87 -11 46 24 131 146 154 223 6 18 3 22 -13 22
-12 0 -37 -22 -67 -60 -43 -55 -64 -72 -64 -52 0 4 16 54 35 111 38 110 48
199 26 225 -29 35 -88 11 -150 -60 l-41 -47 0 39 c0 51 -23 84 -58 84 -32 0
-92 -46 -133 -103 -34 -47 -36 -44 -9 23 11 28 20 59 20 70 0 26 -37 50 -78
50 -30 0 -35 -5 -53 -45 -11 -24 -33 -97 -50 -162 -28 -106 -35 -122 -72 -161
-23 -23 -43 -38 -45 -33 -2 6 15 67 38 136 22 69 43 145 46 169 8 55 -4 63
-112 71 -75 6 -82 5 -131 -24 -28 -17 -67 -50 -86 -73 -35 -43 -97 -161 -97
-185 0 -15 -68 -93 -81 -93 -18 0 -8 58 50 305 82 344 79 317 41 348 -30 26
-73 36 -83 20z m383 -361 c0 -48 -141 -291 -182 -313 -20 -11 -21 -9 -16 36 8
69 78 204 133 253 49 46 65 52 65 24z m-485 -89 c-53 -170 -120 -271 -150
-223 -9 15 23 117 57 183 28 51 104 135 114 125 2 -2 -8 -40 -21 -85z"/>
<path d="M5597 1983 c-3 -5 -12 -48 -21 -98 -31 -183 -35 -195 -62 -195 -101
0 -220 -122 -265 -271 -19 -61 -60 -121 -75 -107 -3 4 11 57 31 118 54 167 50
240 -12 240 -38 0 -76 -25 -132 -86 l-52 -56 25 66 26 67 -25 25 c-17 16 -35
24 -60 24 -34 0 -38 -3 -60 -53 -13 -29 -36 -102 -51 -162 -24 -98 -32 -115
-68 -153 -22 -23 -42 -38 -44 -33 -2 6 15 67 38 136 22 69 43 145 46 169 8 55
-4 63 -112 71 -75 6 -82 5 -131 -24 -28 -17 -67 -50 -86 -73 -36 -44 -97 -161
-97 -188 -1 -19 -67 -97 -75 -88 -4 3 10 55 29 114 39 113 49 201 27 228 -29
35 -88 11 -150 -60 l-41 -47 0 39 c0 51 -23 84 -58 84 -32 0 -92 -46 -133
-103 -34 -47 -36 -44 -9 23 11 28 20 59 20 70 0 26 -37 50 -78 50 -30 0 -35
-5 -54 -47 -24 -55 -86 -294 -94 -367 -7 -60 12 -92 71 -120 43 -21 53 -16 47
23 -2 16 6 60 18 98 32 96 121 266 134 252 2 -2 -10 -49 -26 -104 -16 -55 -30
-128 -31 -164 -2 -57 0 -65 23 -82 14 -10 38 -21 54 -25 27 -6 28 -5 22 22
-11 55 93 298 148 344 22 18 21 0 -8 -112 -13 -51 -27 -119 -31 -150 -7 -52
-5 -59 18 -82 15 -14 34 -26 44 -26 26 0 79 35 99 65 18 28 34 33 34 11 0 -22
49 -56 81 -56 42 0 73 15 113 55 l36 36 0 -40 c0 -32 5 -44 25 -57 33 -22 66
-12 115 32 22 20 40 32 40 26 0 -17 64 -61 99 -68 30 -6 32 -5 26 19 -14 55
64 248 129 322 43 49 46 35 16 -70 -25 -87 -40 -183 -33 -219 7 -36 45 -60 80
-51 15 3 44 23 65 44 33 33 38 36 43 20 10 -29 55 -59 90 -59 32 0 78 28 103
62 13 18 33 25 31 11 -8 -52 29 -89 77 -77 15 4 47 27 71 51 43 43 44 43 53
19 18 -48 76 -69 133 -47 14 6 41 26 61 46 l36 36 0 -40 c0 -50 33 -77 77 -66
41 10 112 89 156 171 42 82 43 84 21 84 -9 0 -44 -30 -77 -66 -34 -37 -63 -62
-65 -56 -2 6 15 68 38 137 22 69 43 145 46 169 8 55 -4 63 -112 71 -75 6 -82
5 -131 -24 -28 -17 -67 -50 -86 -73 -35 -43 -97 -161 -97 -185 0 -15 -68 -93
-81 -93 -18 0 -8 58 50 305 82 344 79 317 41 348 -30 26 -73 36 -83 20z m-877
-361 c0 -48 -141 -291 -182 -313 -20 -11 -21 -9 -16 36 8 69 78 204 133 253
49 46 65 52 65 24z m1260 0 c0 -48 -141 -291 -182 -313 -20 -11 -21 -9 -16 36
8 69 78 204 133 253 49 46 65 52 65 24z m-485 -89 c-53 -170 -120 -271 -150
-223 -9 15 23 117 57 183 28 51 104 135 114 125 2 -2 -8 -40 -21 -85z"/>
<path d="M457 1971 c-21 -4 -32 -15 -41 -41 -10 -29 -74 -139 -182 -311 l-22
-36 -61 15 c-58 14 -63 14 -83 -4 -25 -23 -57 -90 -58 -121 0 -27 -1 -27 37
-8 29 14 93 11 93 -4 0 -4 -16 -40 -36 -79 -77 -158 -83 -213 -29 -261 47 -41
65 -40 65 2 0 19 8 58 19 88 28 81 100 219 114 218 6 0 34 -8 62 -18 l50 -18
-5 -39 c-10 -76 -3 -152 17 -186 25 -43 75 -59 103 -33 24 22 26 41 4 49 -28
11 -12 155 50 438 62 283 67 332 37 348 -21 11 -88 12 -134 1z m-23 -353 c-14
-67 -28 -124 -29 -126 -2 -2 -21 6 -43 17 l-41 21 67 109 c37 60 68 107 70
106 2 -2 -9 -59 -24 -127z"/>
<path d="M3707 1971 c-21 -4 -32 -15 -41 -41 -10 -29 -74 -139 -182 -311 l-22
-36 -61 15 c-58 14 -63 14 -83 -4 -25 -23 -57 -90 -58 -121 0 -27 -1 -27 37
-8 29 14 93 11 93 -4 0 -4 -16 -40 -36 -79 -77 -158 -83 -213 -29 -261 47 -41
65 -40 65 2 0 19 8 58 19 88 28 81 100 219 114 218 6 0 34 -8 62 -18 l50 -18
-5 -39 c-10 -76 -3 -152 17 -186 25 -43 75 -59 103 -33 24 22 26 41 4 49 -28
11 -12 155 50 438 62 283 67 332 37 348 -21 11 -88 12 -134 1z m-23 -353 c-14
-67 -28 -124 -29 -126 -2 -2 -21 6 -43 17 l-41 21 67 109 c37 60 68 107 70
106 2 -2 -9 -59 -24 -127z"/>
<path d="M2624 1941 c-83 -51 -121 -142 -110 -262 l7 -69 -66 -73 c-36 -39
-83 -96 -103 -126 -63 -92 -48 -171 42 -218 44 -23 129 -12 205 27 l63 31 22
-20 c49 -46 133 -35 186 25 34 39 44 90 13 61 -29 -25 -70 -31 -97 -13 l-25
16 66 62 c36 35 76 82 90 106 23 38 24 46 13 73 -14 34 -42 55 -88 68 -37 11
-44 6 -30 -25 9 -18 7 -29 -7 -51 -31 -47 -99 -122 -106 -117 -4 2 -17 34 -29
70 l-22 66 34 36 c98 104 154 210 143 269 -10 56 -47 83 -114 83 -37 0 -66 -6
-87 -19z m86 -80 c13 -25 5 -45 -39 -103 -40 -55 -51 -59 -51 -20 0 95 60 178
90 123z m-130 -461 l22 -60 -23 -20 c-43 -35 -87 -52 -108 -41 -26 14 -33 38
-19 64 15 29 89 117 98 117 4 0 18 -27 30 -60z"/>
<path d="M5788 683 c-22 -5 -22 -10 -2 -87 35 -140 33 -134 54 -129 23 6 24
14 10 103 -20 128 -18 125 -62 113z"/>
<path d="M388 529 l-97 -140 26 -10 c23 -8 29 -6 53 22 l26 32 55 -13 c76 -18
89 -26 89 -58 0 -34 16 -52 46 -52 l21 0 -34 173 c-19 94 -36 172 -37 173 0 1
-12 4 -26 7 -24 6 -33 -5 -122 -134z m126 -21 c8 -53 6 -55 -56 -38 l-38 11
37 55 c41 62 44 60 57 -28z"/>
<path d="M5535 618 c-22 -5 -56 -14 -76 -19 l-36 -9 28 -156 c16 -86 30 -158
32 -160 2 -2 43 7 91 20 128 34 175 89 163 193 -11 101 -99 158 -202 131z
m110 -71 c32 -27 44 -92 25 -137 -14 -34 -47 -55 -102 -65 -42 -8 -38 -17 -63
120 -15 82 -14 90 20 98 51 12 95 6 120 -16z"/>
<path d="M716 588 c-10 -41 -54 -293 -53 -295 1 -1 14 -4 28 -8 22 -5 27 -3
33 17 3 13 6 34 6 47 0 19 4 22 23 17 12 -3 29 -6 38 -6 10 0 24 -19 36 -52
15 -39 27 -56 46 -62 15 -6 29 -7 32 -4 3 3 -4 26 -15 52 -25 59 -25 63 0 71
28 9 50 56 50 106 0 58 -45 102 -120 118 -30 7 -65 14 -77 17 -17 5 -23 1 -27
-18z m147 -69 c20 -11 24 -78 5 -97 -13 -13 -59 -16 -96 -5 -23 6 -24 9 -17
62 4 31 9 59 11 63 4 7 68 -8 97 -23z"/>
<path d="M5221 549 c-47 -11 -86 -21 -87 -22 -3 -3 46 -310 50 -315 3 -2 52 6
110 18 99 21 106 24 106 46 0 28 -9 29 -100 9 -36 -7 -66 -13 -67 -11 -1 1 -5
20 -9 43 l-6 40 66 14 c63 12 66 14 66 42 0 22 -4 27 -17 23 -40 -12 -116 -26
-120 -23 -2 3 -6 20 -10 40 l-5 35 76 17 c69 15 77 20 74 39 -4 28 -24 28
-127 5z"/>
<path d="M1010 385 c-13 -85 -20 -158 -17 -162 7 -6 178 -42 205 -43 6 0 12
11 12 25 0 26 3 25 -103 45 l-57 11 6 42 c4 23 7 43 8 44 1 1 30 -5 66 -12 68
-14 84 -10 78 21 -2 13 -16 21 -48 27 -94 17 -89 13 -83 55 3 20 7 38 8 40 1
1 34 -4 74 -13 40 -8 74 -15 75 -15 2 0 6 11 8 25 4 20 1 26 -16 30 -28 7
-180 35 -187 35 -3 0 -16 -70 -29 -155z"/>
<path d="M4994 502 c-8 -5 -5 -51 10 -162 20 -144 23 -155 44 -158 13 -2 25 3
28 12 5 14 -13 170 -33 284 -5 32 -24 41 -49 24z"/>
<path d="M4723 458 c-51 -9 -53 -11 -53 -42 0 -17 7 -86 15 -151 8 -66 15
-123 15 -127 0 -5 14 -8 30 -8 l31 0 -7 49 -6 48 33 6 c30 5 39 1 72 -34 27
-28 46 -39 67 -39 33 0 38 11 15 30 -9 7 -25 26 -36 42 l-20 28 20 26 c24 30
28 88 9 129 -23 51 -75 63 -185 43z m115 -54 c27 -19 30 -74 5 -96 -10 -9 -36
-19 -59 -23 l-41 -6 -7 47 c-11 80 -10 82 32 87 20 2 39 4 42 5 3 1 16 -5 28
-14z"/>
<path d="M1515 441 c-84 -37 -120 -154 -75 -242 36 -70 130 -106 202 -76 29
12 36 21 41 53 12 70 9 92 -14 99 -27 9 -29 6 -37 -52 -7 -46 -9 -48 -41 -51
-67 -7 -111 40 -111 117 0 60 38 101 95 101 28 0 51 -7 69 -21 l28 -22 20 20
20 20 -37 28 c-39 30 -121 43 -160 26z"/>
<path d="M5831 416 c-26 -31 14 -71 45 -45 8 7 14 22 12 33 -4 26 -40 33 -57
12z"/>
<path d="M1795 406 c-7 -23 -28 -306 -23 -311 6 -6 141 -24 186 -25 27 0 32 4
32 24 0 23 -5 25 -67 31 -94 9 -95 9 -91 52 l3 38 73 -3 c70 -3 72 -2 72 21 0
26 -28 37 -96 37 -40 0 -47 10 -39 53 l6 33 57 -7 c98 -12 102 -12 102 16 0
14 -1 25 -2 25 -114 17 -211 24 -213 16z"/>
<path d="M4388 413 c-45 -5 -44 1 -26 -201 l11 -133 26 3 c24 3 26 7 26 50 0
45 1 47 35 53 31 6 38 3 70 -34 28 -33 42 -41 69 -41 l33 0 -36 44 c-20 24
-36 47 -36 51 0 4 9 18 20 32 23 29 26 88 8 128 -22 49 -72 61 -200 48z m134
-60 c22 -20 24 -76 2 -93 -8 -8 -35 -16 -59 -20 l-43 -7 -6 36 c-11 69 -8 89
17 94 47 9 71 6 89 -10z"/>
<path d="M2057 384 c-4 -4 -7 -18 -7 -31 0 -21 4 -23 46 -23 l46 0 -7 -140 -7
-140 31 0 c30 0 31 1 31 43 0 24 3 85 7 136 l6 92 49 -6 48 -7 0 30 0 29 -106
7 c-58 4 -112 10 -118 12 -7 3 -15 1 -19 -2z"/>
<path d="M4107 373 c-11 -18 -106 -327 -102 -331 2 -2 15 -2 29 2 17 4 28 17
36 41 12 38 22 42 104 47 47 3 51 1 69 -29 15 -26 26 -33 49 -33 16 0 28 3 26
8 -1 4 -37 73 -78 154 -69 135 -77 148 -102 148 -15 0 -29 -3 -31 -7z m65
-127 l27 -54 -22 -6 c-12 -3 -35 -6 -50 -6 -22 0 -27 4 -23 18 2 9 10 36 17
60 7 23 15 42 18 42 4 0 19 -24 33 -54z"/>
<path d="M2320 338 c0 -23 5 -26 50 -32 l49 -7 -4 -62 c-3 -34 -7 -95 -9 -134
l-5 -73 30 0 c16 0 30 6 30 13 1 6 4 66 8 132 l6 120 48 -2 c46 -1 47 0 47 28
0 26 -3 29 -33 29 -19 0 -75 3 -125 6 l-92 7 0 -25z"/>
<path d="M3830 259 c-25 -56 -50 -101 -55 -100 -6 0 -35 42 -66 93 -39 66 -61
93 -75 93 -17 0 -19 -9 -22 -110 -2 -60 0 -134 3 -162 6 -47 9 -53 30 -53 24
0 24 2 27 96 l3 95 45 -75 c24 -42 51 -76 58 -76 7 0 32 39 55 88 l41 87 6
-97 c4 -54 9 -100 12 -104 4 -3 16 -3 28 1 22 7 22 9 15 149 -8 167 -10 176
-38 176 -18 0 -30 -18 -67 -101z"/>
<path d="M2627 258 c-4 -46 -7 -117 -7 -159 0 -71 2 -77 22 -83 13 -3 26 -2
29 2 4 4 9 78 12 165 l5 157 -28 0 c-27 0 -27 -1 -33 -82z"/>
<path d="M2778 225 c-4 -229 -6 -210 25 -213 l27 -3 1 78 c2 137 4 138 84 24
60 -85 74 -100 98 -101 l27 0 0 160 0 160 -30 0 -29 0 -3 -102 -3 -102 -75
107 c-58 83 -80 107 -97 107 -22 0 -23 -3 -25 -115z"/>
<path d="M3200 317 c-115 -61 -113 -245 4 -298 52 -24 90 -23 144 1 l42 19 0
71 0 71 -27 -3 c-26 -3 -28 -7 -33 -58 l-5 -55 -46 -3 c-38 -2 -50 1 -72 23
-70 71 -29 195 65 195 21 0 49 -7 62 -15 21 -14 24 -13 39 3 16 18 16 20 0 35
-47 42 -111 47 -173 14z"/>
</g>
</svg>
